<svg width="48" height="48" viewBox="0 0 48 48" fill="none" xmlns="http://www.w3.org/2000/svg">
<rect width="48" height="48" rx="7" fill="white" fill-opacity="0.3"/>
<path d="M34.1262 15.3286C35.2782 16.4674 36.192 17.8193 36.8155 19.3072C37.439 20.795 37.7599 22.3897 37.7599 24.0002C37.7599 25.6106 37.439 27.2053 36.8155 28.6932C36.192 30.181 35.2782 31.5329 34.1262 32.6717M30.4719 18.9422C31.8288 20.2838 32.5911 22.1031 32.5911 24.0002C32.5911 25.8972 31.8288 27.7166 30.4719 29.0581M17.0829 18.8904L23.5892 12.459C23.7338 12.3163 23.918 12.2191 24.1184 12.1797C24.3188 12.1404 24.5265 12.1606 24.7153 12.2379C24.9041 12.3152 25.0655 12.446 25.1791 12.6139C25.2928 12.7818 25.3535 12.9792 25.3537 13.1812V34.8191C25.3535 35.0211 25.2928 35.2185 25.1791 35.3864C25.0655 35.5543 24.9041 35.6851 24.7153 35.7624C24.5265 35.8397 24.3188 35.8599 24.1184 35.8206C23.918 35.7812 23.7338 35.684 23.5892 35.5413L17.0829 29.1099H13.9952C12.7822 29.1099 11.6463 28.419 11.3238 27.2649C11.0281 26.2013 10.8788 25.1032 10.8799 24.0002C10.8799 22.8692 11.0343 21.775 11.3238 20.7354C11.6463 19.5799 12.7822 18.8904 13.9952 18.8904H17.0829Z" stroke="white" stroke-width="3" stroke-linecap="round" stroke-linejoin="round"/>
</svg>
