<svg width="48" height="48" viewBox="0 0 48 48" fill="none" xmlns="http://www.w3.org/2000/svg">
<rect width="48" height="48" rx="7" fill="white" fill-opacity="0.3"/>
<path d="M23.5 12C30.4063 12 36 17.5937 36 24.5C35.9993 27.1191 35.1773 29.672 33.6497 31.7994C32.1221 33.9268 29.9659 35.5217 27.4844 36.3594C26.8594 36.4844 26.625 36.0938 26.625 35.7656C26.625 35.3438 26.6406 34 26.6406 32.3281C26.6406 31.1563 26.25 30.4062 25.7969 30.0156C28.5781 29.7031 31.5 28.6406 31.5 23.8437C31.5 22.4687 31.0156 21.3594 30.2188 20.4844C30.3438 20.1719 30.7813 18.8906 30.0938 17.1719C30.0938 17.1719 29.0469 16.8281 26.6563 18.4531C25.6563 18.1719 24.5938 18.0312 23.5313 18.0312C22.4688 18.0312 21.4063 18.1719 20.4063 18.4531C18.0156 16.8438 16.9688 17.1719 16.9688 17.1719C16.2813 18.8906 16.7188 20.1719 16.8438 20.4844C16.0469 21.3594 15.5625 22.4844 15.5625 23.8437C15.5625 28.625 18.4688 29.7031 21.25 30.0156C20.8906 30.3281 20.5625 30.875 20.4531 31.6875C19.7344 32.0156 17.9375 32.5469 16.8125 30.6562C16.5781 30.2812 15.875 29.3594 14.8906 29.375C13.8438 29.3906 14.4688 29.9687 14.9063 30.2031C15.4375 30.5 16.0469 31.6094 16.1875 31.9687C16.4375 32.6719 17.25 34.0156 20.3906 33.4375C20.3906 34.4844 20.4063 35.4688 20.4063 35.7656C20.4063 36.0938 20.1719 36.4688 19.5469 36.3594C17.0572 35.5307 14.8918 33.9391 13.3576 31.8104C11.8235 29.6817 10.9986 27.1239 11 24.5C11 17.5937 16.5938 12 23.5 12Z" fill="white"/>
</svg>
