<svg width="48" height="48" viewBox="0 0 48 48" fill="none" xmlns="http://www.w3.org/2000/svg">
<rect width="48" height="48" rx="7" fill="white" fill-opacity="0.3"/>
<path d="M24.0027 17.8467C20.5974 17.8467 17.8508 20.594 17.8508 24C17.8508 27.406 20.5974 30.1533 24.0027 30.1533C27.4079 30.1533 30.1546 27.406 30.1546 24C30.1546 20.594 27.4079 17.8467 24.0027 17.8467ZM24.0027 28.0004C21.8021 28.0004 20.0031 26.2064 20.0031 24C20.0031 21.7936 21.7968 19.9996 24.0027 19.9996C26.2086 19.9996 28.0022 21.7936 28.0022 24C28.0022 26.2064 26.2032 28.0004 24.0027 28.0004ZM31.8412 17.595C31.8412 18.3929 31.1987 19.0302 30.4062 19.0302C29.6085 19.0302 28.9713 18.3876 28.9713 17.595C28.9713 16.8024 29.6138 16.1598 30.4062 16.1598C31.1987 16.1598 31.8412 16.8024 31.8412 17.595ZM35.9157 19.0517C35.8247 17.1291 35.3856 15.4261 33.9775 14.023C32.5747 12.6199 30.8721 12.1807 28.9499 12.0843C26.9689 11.9719 21.0311 11.9719 19.0501 12.0843C17.1333 12.1754 15.4307 12.6145 14.0225 14.0176C12.6144 15.4207 12.1807 17.1237 12.0843 19.0463C11.9719 21.0278 11.9719 26.9669 12.0843 28.9483C12.1753 30.8709 12.6144 32.5739 14.0225 33.977C15.4307 35.3801 17.1279 35.8193 19.0501 35.9157C21.0311 36.0281 26.9689 36.0281 28.9499 35.9157C30.8721 35.8246 32.5747 35.3855 33.9775 33.977C35.3803 32.5739 35.8193 30.8709 35.9157 28.9483C36.0281 26.9669 36.0281 21.0331 35.9157 19.0517ZM33.3564 31.0744C32.9388 32.1241 32.1303 32.9327 31.0755 33.3558C29.496 33.9824 25.7481 33.8378 24.0027 33.8378C22.2572 33.8378 18.504 33.977 16.9298 33.3558C15.8804 32.9381 15.0719 32.1294 14.649 31.0744C14.0225 29.4946 14.1671 25.7458 14.1671 24C14.1671 22.2542 14.0279 18.5001 14.649 16.9256C15.0666 15.8759 15.8751 15.0673 16.9298 14.6442C18.5093 14.0176 22.2572 14.1622 24.0027 14.1622C25.7481 14.1622 29.5014 14.023 31.0755 14.6442C32.1249 15.0619 32.9334 15.8706 33.3564 16.9256C33.9828 18.5054 33.8383 22.2542 33.8383 24C33.8383 25.7458 33.9828 29.4999 33.3564 31.0744Z" fill="white"/>
</svg>
