<svg width="48" height="48" viewBox="0 0 48 48" fill="none" xmlns="http://www.w3.org/2000/svg">
<rect width="48" height="48" rx="7" fill="white" fill-opacity="0.3"/>
<path d="M18.5288 32H14.3342V18.647H18.5288V32ZM16.4292 16.8256C15.0879 16.8256 14 15.7273 14 14.4014C14 13.7645 14.2559 13.1537 14.7115 12.7034C15.1671 12.253 15.785 12 16.4292 12C17.0735 12 17.6914 12.253 18.1469 12.7034C18.6025 13.1537 18.8584 13.7645 18.8584 14.4014C18.8584 15.7273 17.7701 16.8256 16.4292 16.8256ZM34.2277 32H30.0422V25.4999C30.0422 23.9507 30.0106 21.9641 27.8613 21.9641C25.6805 21.9641 25.3463 23.6471 25.3463 25.3882V32H21.1562V18.647H25.1792V20.4685H25.2379C25.7979 19.4194 27.1658 18.3122 29.2067 18.3122C33.4518 18.3122 34.2322 21.0756 34.2322 24.665V32H34.2277Z" fill="white"/>
</svg>
