<svg width="48" height="48" viewBox="0 0 48 48" fill="none" xmlns="http://www.w3.org/2000/svg">
<rect width="48" height="48" rx="7" fill="white" fill-opacity="0.3"/>
<path d="M35 17.55V29.45C35 30.1263 34.7326 30.7749 34.2565 31.2531C33.7804 31.7313 33.1348 32 32.4615 32H15.5385C14.8652 32 14.2196 31.7313 13.7435 31.2531C13.2674 30.7749 13 30.1263 13 29.45V17.55M35 17.55C35 16.8737 34.7326 16.2251 34.2565 15.7469C33.7804 15.2687 33.1348 15 32.4615 15H15.5385C14.8652 15 14.2196 15.2687 13.7435 15.7469C13.2674 16.2251 13 16.8737 13 17.55M35 17.55V17.8254C35 18.2608 34.8891 18.6889 34.6778 19.069C34.4665 19.4491 34.1618 19.7685 33.7928 19.9969L25.3313 25.2272C24.931 25.4749 24.4701 25.606 24 25.606C23.5299 25.606 23.069 25.4749 22.6687 25.2272L14.2072 19.998C13.8382 19.7697 13.5335 19.4502 13.3222 19.0701C13.1109 18.69 13 18.2619 13 17.8265V17.55" stroke="white" stroke-width="1.5" stroke-linecap="round" stroke-linejoin="round"/>
</svg>
