<svg width="48" height="48" viewBox="0 0 48 48" fill="none" xmlns="http://www.w3.org/2000/svg">
<rect width="48" height="48" rx="7" fill="white" fill-opacity="0.3"/>
<path d="M17.192 16C12.6677 16 9 19.5995 9 24.0392C9 28.479 12.668 32.0784 17.192 32.0784C21.7159 32.0784 25.3839 28.4792 25.3839 24.0392C25.3839 19.5992 21.7164 16 17.192 16ZM30.2741 16.4709C28.0119 16.4709 26.1784 19.8602 26.1784 24.0393C26.1784 28.2185 28.0122 31.608 30.2744 31.608C32.5366 31.608 34.3704 28.2187 34.3704 24.0393H34.3701C34.3701 19.859 32.5365 16.4709 30.2742 16.4709H30.2741ZM36.6056 17.2592C35.8101 17.2592 35.1653 20.295 35.1653 24.0393C35.1653 27.7837 35.8097 30.8195 36.6056 30.8195C37.4014 30.8195 38.0462 27.7829 38.0462 24.0392C38.0462 20.2948 37.4011 17.2592 36.6056 17.2592H36.6056Z" fill="white"/>
</svg>
