<svg width="48" height="48" viewBox="0 0 48 48" fill="none" xmlns="http://www.w3.org/2000/svg">
<rect width="48" height="48" rx="7" fill="white" fill-opacity="0.3"/>
<path d="M37.4149 17.1293C37.0929 15.8976 36.1441 14.9274 34.9394 14.5982C32.7558 14 24 14 24 14C24 14 15.2442 14 13.0606 14.5982C11.8559 14.9275 10.9071 15.8976 10.5851 17.1293C10 19.362 10 24.0202 10 24.0202C10 24.0202 10 28.6784 10.5851 30.9111C10.9071 32.1429 11.8559 33.0726 13.0606 33.4018C15.2442 34 24 34 24 34C24 34 32.7558 34 34.9394 33.4018C36.1441 33.0726 37.0929 32.1429 37.4149 30.9111C38 28.6784 38 24.0202 38 24.0202C38 24.0202 38 19.362 37.4149 17.1293ZM21.1363 28.2495V19.7909L28.4545 24.0203L21.1363 28.2495Z" fill="white"/>
</svg>
